<svg id="Line_Icon" height="512" viewBox="0 0 64 64" width="512" xmlns="http://www.w3.org/2000/svg" data-name="Line Icon"><path d="m20.691 16.51a5.444 5.444 0 1 0 -5.443 5.443 5.449 5.449 0 0 0 5.443-5.443zm-5.443 3.943a3.944 3.944 0 1 1 3.943-3.943 3.947 3.947 0 0 1 -3.943 3.943z"/><path d="m16 7.766v-2.442a.75.75 0 0 0 -1.5 0v2.442a.75.75 0 0 0 1.5 0z"/><path d="m9.065 11.077a.75.75 0 0 0 .535-1.277l-1.731-1.73a.75.75 0 0 0 -1.06 1.061l1.726 1.726a.744.744 0 0 0 .53.22z"/><path d="m4.063 15.76a.75.75 0 0 0 0 1.5h2.437a.75.75 0 1 0 0-1.5z"/><path d="m7.339 25.169a.744.744 0 0 0 .53-.22l1.731-1.726a.75.75 0 1 0 -1.06-1.061l-1.731 1.727a.75.75 0 0 0 .53 1.28z"/><path d="m14.5 25.253v2.441a.75.75 0 0 0 1.5 0v-2.441a.75.75 0 0 0 -1.5 0z"/><path d="m22.626 24.949a.75.75 0 0 0 1.061-1.06l-1.726-1.727a.75.75 0 0 0 -1.061 1.061z"/><path d="m26.433 17.26a.75.75 0 0 0 0-1.5h-2.442a.75.75 0 0 0 0 1.5z"/><path d="m21.431 11.077a.746.746 0 0 0 .53-.22l1.726-1.726a.75.75 0 0 0 -1.061-1.061l-1.726 1.73a.75.75 0 0 0 .531 1.28z"/><path d="m48.994 31.909h-16.047a.261.261 0 0 0 -.027.006 13.746 13.746 0 0 0 -6.188 26.012h-24.732a.75.75 0 0 0 0 1.5h30.923.026.027 16.018a13.758 13.758 0 0 0 0-27.515zm-28.3 13.759a12.253 12.253 0 1 1 12.285 12.256h-.056a12.27 12.27 0 0 1 -12.232-12.256zm28.3 12.256h-9.812a13.737 13.737 0 0 0 -.025-24.516h9.837a12.258 12.258 0 0 1 0 24.515z"/><path d="m42.439 45.668a9.491 9.491 0 1 0 -9.49 9.49 9.5 9.5 0 0 0 9.49-9.49zm-17.481 0a7.991 7.991 0 1 1 7.991 7.99 8 8 0 0 1 -7.991-7.99z"/><path d="m38.172 45.668a5.223 5.223 0 1 0 -5.223 5.224 5.229 5.229 0 0 0 5.223-5.224zm-8.946 0a3.723 3.723 0 1 1 3.723 3.724 3.727 3.727 0 0 1 -3.723-3.724z"/></svg>