<svg id="Слой_1" height="512" viewBox="0 0 512 512" width="512" xmlns="http://www.w3.org/2000/svg" data-name="Слой 1"><path d="m503.94 452.48h-495.88a8.06 8.06 0 0 1 0-16.12h495.88a8.06 8.06 0 0 1 0 16.12z"/><path d="m402.52 496.71h-394.46a8.06 8.06 0 1 1 0-16.12h394.46a8.06 8.06 0 0 1 0 16.12z"/><path d="m503.94 496.71h-50.24a8.06 8.06 0 0 1 0-16.12h50.25a8.06 8.06 0 0 1 0 16.12z"/><path d="m244.1 408.21a20.48 20.48 0 0 1 -14.1-5.21c-7.17-6-15.56-20.48 8.8-50a8.06 8.06 0 1 1 12.43 10.26c-8.22 10-16 23.09-10.88 27.38 1.33 1.11 2.06 1.72 5.53 1.33a3.71 3.71 0 0 0 1.73-2.17l-.14-.13a8.06 8.06 0 1 1 10.22-12.46 15.93 15.93 0 0 1 5.31 17.29c-2.11 7.15-8.4 12.7-15.31 13.49a31.39 31.39 0 0 1 -3.59.22z"/><path d="m207.34 352.25a21.37 21.37 0 0 1 -3.18-.24c-9-1.35-15.87-7.57-17.21-15.49-1.18-6.93 2.19-13.39 8.78-16.88a8.06 8.06 0 1 1 7.53 14.25l-.32.19a4.88 4.88 0 0 0 3.62 2c4.53.68 9.45-4.95 10.42-6.38a8.06 8.06 0 1 1 13.34 9c-3.59 5.3-12.17 13.55-22.98 13.55z"/><path d="m370.37 176.8a8.06 8.06 0 0 1 -5-14.4l17.84-14-2.21-22.34a8.06 8.06 0 0 1 16-1.63l2.73 26.79a8.06 8.06 0 0 1 -3.05 7.16l-21.34 16.7a8 8 0 0 1 -4.97 1.72z"/><path d="m385.69 202.23a8.06 8.06 0 0 1 -4.25-14.91l24.67-15.32a10.65 10.65 0 0 0 5.08-9.12 7.9 7.9 0 0 1 0-.8l1-9.87a8.06 8.06 0 1 1 16 1.58l-.94 9.51a26.66 26.66 0 0 1 -12.7 22.4l-24.62 15.3a8 8 0 0 1 -4.24 1.23z"/><path d="m107.26 397.67a8.06 8.06 0 0 1 -7.84-6.21 63.17 63.17 0 0 1 -1.6-16.17 8.06 8.06 0 0 1 16.09.84 47.28 47.28 0 0 0 1.19 11.63 8.07 8.07 0 0 1 -7.85 9.91z"/><path d="m136.36 387.16a8.06 8.06 0 0 1 -7.9-6.51c-1-5.33-6.33-10.7-10.49-14.09-1.48 1.83-3.22 5-4.15 10.51a8.06 8.06 0 0 1 -16-1.69c0-.28.93-30.1-17.31-37.88a8.06 8.06 0 1 1 6.32-14.82c13.56 5.78 20.36 17.76 23.76 28.91a18.37 18.37 0 0 1 5.25-2.65 8.06 8.06 0 0 1 6.42.9c1.93 1.19 18.94 12.08 22 27.73a8.07 8.07 0 0 1 -7.92 9.61z"/><path d="m8.06 452.76a8.06 8.06 0 0 1 -7.57-10.82c3.4-9.34 7.88-15.18 12.2-18.82a58.16 58.16 0 0 1 -12.45-22.45 8.06 8.06 0 0 1 4.85-9.43 42.86 42.86 0 0 1 19-3.19c-2.4-19.91 8.82-26.51 10.37-27.32a8.06 8.06 0 0 1 9.84 1.88 29.05 29.05 0 0 0 9.24 7.55c3.44-6.51-1.1-15.85-1.16-16a8.06 8.06 0 0 1 14.38-7.27c4.54 8.92 8.53 27.06-5.29 38.53a8.06 8.06 0 0 1 -5.14 1.86c-1.54 0-8.1-.44-16.28-6.65-.38 3.5.09 8.86 3 16.85a8.18 8.18 0 0 1 -3 9.64 7.83 7.83 0 0 1 -9.76-.75c-.63-.45-4.43-2.95-11.23-2.23a40.39 40.39 0 0 0 12.61 14.3c3 2.07 4.7 6 3.44 9.44a7.59 7.59 0 0 1 -7.79 5.3c-1.16.22-7.14 1.93-11.63 14.25a8.06 8.06 0 0 1 -7.63 5.33z"/><path d="m208.46 444.81c0-.53-.54-13.17-15.6-22.49a8 8 0 0 1 -4.05-6.64 7.58 7.58 0 0 1 3.38-6.62c.6-.58 3.42-3.67 3.11-10.48a31.36 31.36 0 0 1 -16.14 6 8.06 8.06 0 0 1 -7.43-3.52 7.75 7.75 0 0 1 -.41-8c.44-1.11 2.32-6.92-2.81-14.79a14 14 0 0 1 -5.61 3.31 8.06 8.06 0 0 1 -5.28-15.21 11.91 11.91 0 0 0 1.6-3.65 8 8 0 0 1 13.15-4.16c10.4 9.13 14.29 18.21 15.36 25.53a25.18 25.18 0 0 0 4.68-5.45 8.06 8.06 0 0 1 14.4.81c7 16.25 4.88 27.43 1.52 34.23 16 13.66 16.24 30.23 16.24 31h-16.11z"/><path d="m168.47 225a8.07 8.07 0 0 1 -2.22-.31c-1.18-.34-29-8.55-36.12-31-4.46-14 .11-29.66 13.59-46.46a8.06 8.06 0 0 1 9.29-2.43c.86.35 21.17 8.71 28.65 29.24 5.08 13.94 3 29.65-6.07 46.71a8.06 8.06 0 0 1 -7.12 4.25zm-16.17-62.28c-6.84 10.06-9.13 18.82-6.81 26.12 2.89 9.09 12.45 14.92 18.94 17.92 4.24-10.21 4.95-19.33 2.09-27.18-3.03-8.29-9.52-13.8-14.22-16.86z"/><path d="m376.64 86.12a35.42 35.42 0 1 1 24.46-61 35.41 35.41 0 0 1 -24.46 61zm0-54.72h-.47a19.31 19.31 0 1 0 13.83 5.34 19.17 19.17 0 0 0 -13.34-5.33z"/><path d="m418.95 450a8.06 8.06 0 0 1 -7.62-5.43l-26.33-76.35a8.06 8.06 0 1 1 15.21-5.22l26.36 76.31a8.06 8.06 0 0 1 -7.62 10.69z"/><path d="m456 450.88a8.06 8.06 0 0 1 -7.67-5.58l-35.7-110.58a8.06 8.06 0 0 1 15.34-5l35.7 110.58a8.06 8.06 0 0 1 -7.67 10.58z"/><path d="m492.22 204.5h-24.59a8.06 8.06 0 0 1 0-16.12h16.53v-59.68c0-12.54-3.35-21.54-10.84-29.1l-13-10a44.17 44.17 0 0 0 -20.3-4.94 12.29 12.29 0 0 0 -12.22 12.23v60.38a8.06 8.06 0 1 1 -16.12 0v-60.38a28.42 28.42 0 0 1 28.39-28.39 60.31 60.31 0 0 1 28.5 7.16 8.06 8.06 0 0 1 1.12.73l13.9 10.79a8 8 0 0 1 .72.63c10.89 10.76 16 23.75 16 40.89v67.74a8.06 8.06 0 0 1 -8.09 8.06z"/><path d="m419.74 165.33a8.06 8.06 0 0 1 -8.06-8.06v-38a38 38 0 0 0 -5.35-19.58 32.91 32.91 0 0 0 -13.93-12.95c-3.13-1.5-6.74-1.42-10.74.23-7.4 3.06-14.38 10.79-17.37 19.23-4.45 12.6-6.23 30.11-7.18 42.18a8.06 8.06 0 1 1 -16.11-1.26c1.11-14.08 3-32.06 8.06-46.29 4.49-12.69 14.85-24 26.4-28.75 8.28-3.43 16.53-3.38 23.85.12a49 49 0 0 1 20.8 19.15 54.06 54.06 0 0 1 7.65 27.88v38a8.06 8.06 0 0 1 -8.02 8.1z"/><path d="m387.76 449.88h-.53a8.06 8.06 0 0 1 -7.51-8.57l11.71-178.63a8.06 8.06 0 0 1 1.24-3.79l12.9-20.31a88 88 0 0 0 6.12-32.3v-1.79a8.06 8.06 0 1 1 16.12 0v1.79a104 104 0 0 1 -7.55 39 7.94 7.94 0 0 1 -.67 1.31l-12.2 19.22-11.59 176.54a8.06 8.06 0 0 1 -8.04 7.53z"/><path d="m354.88 450.88a8.06 8.06 0 0 1 -8.05-7.88l-3-132.51a8.06 8.06 0 0 1 7.87-8.24h.19a8.06 8.06 0 0 1 8.05 7.88l3 132.51a8.06 8.06 0 0 1 -7.87 8.24z"/><path d="m266.48 346.39a8 8 0 0 1 -5.78-2.44l-25.94-26.65a8.06 8.06 0 0 1 .48-11.7l74.35-64.74a8.06 8.06 0 1 1 10.59 12.14l-67.93 59.15 14.75 15.14 122-104.94a8.06 8.06 0 0 1 10.51 12.22l-127.78 109.88a8 8 0 0 1 -5.25 1.94z"/><path d="m394.23 236.52a8.06 8.06 0 0 1 -5.35-14.08c.09-.08 9.05-8.06 25.26-23.76 9.49-9.19 19.66-19.29 30.24-30l.14-.15a9 9 0 0 0 -6.63-15.17c-2.49 0-5.48.88-10.5 7.26l-.06.08-1.3 1.64a8.06 8.06 0 0 1 -12.55-10.12l1.18-1.49.06-.08c4.53-5.76 11.86-13.41 23.16-13.41a25.14 25.14 0 0 1 18.85 41.76 7.75 7.75 0 0 1 -.55.62c-10.78 10.93-21.15 21.22-30.83 30.6-16.49 16-25.4 23.9-25.77 24.23a8 8 0 0 1 -5.35 2.07z"/><path d="m339.38 228.11a21 21 0 0 1 -5.43-.72 20.69 20.69 0 0 1 -12.88-10.06 20.9 20.9 0 0 1 6-27l38.58-28.14a8.06 8.06 0 0 1 11.65 2.35l15.29 25.46a8.06 8.06 0 0 1 -2.73 11.05l-39.72 24a20.71 20.71 0 0 1 -10.76 3.06zm-4.2-18.58a4.75 4.75 0 0 0 6.62 1.77l32.83-19.86-6.63-11-31.47 23a4.76 4.76 0 0 0 -1.36 6.14z"/><path d="m335.21 64.39a8.06 8.06 0 0 1 -1.61-16l37.69-7.73a8.06 8.06 0 0 1 3.24 15.79l-37.69 7.73a8.09 8.09 0 0 1 -1.63.21z"/><path d="m124 298c-9.91 0-27-2-37.79-14.17-9.76-11-11.9-27.17-6.38-48a8.06 8.06 0 0 1 7.51-6c.94 0 22.88-.61 38 15.14 10.28 10.69 14.78 25.89 13.35 45.17a8.06 8.06 0 0 1 -6.93 7.39 61.25 61.25 0 0 1 -7.76.47zm-30-51.48c-2.18 12-.73 20.91 4.34 26.64 6.32 7.14 17.43 8.6 24.57 8.72-.26-11.05-3.3-19.68-9.09-25.7-6.15-6.35-14.34-8.76-19.82-9.66z"/><path d="m191.78 299.33a84.4 84.4 0 0 1 -13.77-1.2 8.06 8.06 0 0 1 -6.73-7.57c-.06-1.23-1.2-30.2 17.79-44.16 11.86-8.72 28.13-9.4 48.36-2a8.06 8.06 0 0 1 5.28 8c-.05.93-1.46 22.85-18.52 36.51-8.65 6.94-19.52 10.42-32.41 10.42zm-4.07-16.26c11 .74 19.8-1.49 26.3-6.65 7-5.53 10.12-13.52 11.53-19-11.72-3.26-20.76-2.61-26.93 1.92-7.69 5.66-10.14 16.66-10.91 23.73z"/></svg>