<?xml version="1.0" encoding="UTF-8" standalone="no"?>
<!-- Created with Inkscape (http://www.inkscape.org/) -->

<svg
   version="1.1"
   id="svg2784"
   xml:space="preserve"
   width="682.66669"
   height="682.66669"
   viewBox="0 0 682.66669 682.66669"
   xmlns="http://www.w3.org/2000/svg"
   xmlns:svg="http://www.w3.org/2000/svg"><defs
     id="defs2788"><clipPath
       clipPathUnits="userSpaceOnUse"
       id="clipPath2806"><path
         d="M 0,512 H 512 V 0 H 0 Z"
         id="path2804" /></clipPath></defs><g
     id="g2790"
     transform="matrix(1.3333333,0,0,-1.3333333,0,682.66667)"><g
       id="g2792"
       transform="translate(343.2197,153.1846)"><path
         d="M 0,0 H 29.03"
         style="fill:none;stroke:#000000;stroke-width:15;stroke-linecap:round;stroke-linejoin:round;stroke-miterlimit:10;stroke-dasharray:none;stroke-opacity:1"
         id="path2794" /></g><g
       id="g2796"
       transform="translate(343.2197,124.1543)"><path
         d="M 0,0 H 29.03"
         style="fill:none;stroke:#000000;stroke-width:15;stroke-linecap:round;stroke-linejoin:round;stroke-miterlimit:10;stroke-dasharray:none;stroke-opacity:1"
         id="path2798" /></g><g
       id="g2800"><g
         id="g2802"
         clip-path="url(#clipPath2806)"><g
           id="g2808"
           transform="translate(213.2568,118.3281)"><path
             d="m 0,0 c 0,-39.813 -32.275,-72.089 -72.089,-72.089 -39.814,0 -72.09,32.276 -72.09,72.089 0,39.814 32.276,72.09 72.09,72.09 C -32.275,72.09 0,39.814 0,0 Z"
             style="fill:none;stroke:#000000;stroke-width:15;stroke-linecap:round;stroke-linejoin:round;stroke-miterlimit:10;stroke-dasharray:none;stroke-opacity:1"
             id="path2810" /></g><g
           id="g2812"
           transform="translate(141.1675,91.0576)"><path
             d="m 0,0 c -15.037,0 -27.271,12.233 -27.271,27.271 0,15.038 12.234,27.27 27.271,27.27 15.037,0 27.271,-12.232 27.271,-27.27 C 27.271,12.233 15.037,0 0,0 Z"
             style="fill:none;stroke:#000000;stroke-width:15;stroke-linecap:round;stroke-linejoin:round;stroke-miterlimit:10;stroke-dasharray:none;stroke-opacity:1"
             id="path2814" /></g><g
           id="g2816"
           transform="translate(504.5,98.1602)"><path
             d="m 0,0 c 0,-28.676 -23.246,-51.921 -51.921,-51.921 -28.675,0 -51.921,23.245 -51.921,51.921 0,28.675 23.246,51.921 51.921,51.921 C -23.246,51.921 0,28.675 0,0 Z"
             style="fill:none;stroke:#000000;stroke-width:15;stroke-linecap:round;stroke-linejoin:round;stroke-miterlimit:10;stroke-dasharray:none;stroke-opacity:1"
             id="path2818" /></g><g
           id="g2820"
           transform="translate(452.5791,81.8506)"><path
             d="m 0,0 c -8.994,0 -16.31,7.315 -16.31,16.31 0,8.993 7.316,16.308 16.31,16.308 8.993,0 16.31,-7.315 16.31,-16.308 C 16.31,7.315 8.993,0 0,0 Z"
             style="fill:none;stroke:#000000;stroke-width:15;stroke-linecap:round;stroke-linejoin:round;stroke-miterlimit:10;stroke-dasharray:none;stroke-opacity:1"
             id="path2822" /></g><g
           id="g2824"
           transform="translate(208.7485,93.1797)"><path
             d="M 0,0 H 192.145"
             style="fill:none;stroke:#000000;stroke-width:15;stroke-linecap:round;stroke-linejoin:round;stroke-miterlimit:10;stroke-dasharray:none;stroke-opacity:1"
             id="path2826" /></g><g
           id="g2828"
           transform="translate(449.5127,149.9912)"><path
             d="m 0,0 v 13.52 c 0,14.543 -10.053,27.156 -24.23,30.4 l -220.828,50.524 h -74.277 c -17.224,0 -31.186,-13.963 -31.186,-31.186 v -36.45"
             style="fill:none;stroke:#000000;stroke-width:15;stroke-linecap:round;stroke-linejoin:round;stroke-miterlimit:10;stroke-dasharray:none;stroke-opacity:1"
             id="path2830" /></g><g
           id="g2832"
           transform="translate(256.354,262.5146)"><path
             d="m 0,0 99.25,-23.963 c 11.751,-2.838 23.061,6.067 23.061,18.156 0,7.737 -4.769,14.672 -11.993,17.441 L -47.888,72.269 C -60.119,76.956 -73.25,67.926 -73.25,54.827 V 32.392 c 0,-8.627 5.908,-16.132 14.293,-18.157 L -34.09,8.231"
             style="fill:none;stroke:#000000;stroke-width:15;stroke-linecap:round;stroke-linejoin:round;stroke-miterlimit:10;stroke-dasharray:none;stroke-opacity:1"
             id="path2834" /></g><g
           id="g2836"
           transform="translate(351.2021,210.8604)"><path
             d="M 0,0 V 28.754"
             style="fill:none;stroke:#000000;stroke-width:15;stroke-linecap:round;stroke-linejoin:round;stroke-miterlimit:10;stroke-dasharray:none;stroke-opacity:1"
             id="path2838" /></g><g
           id="g2840"
           transform="translate(204.4546,275.0459)"><path
             d="M 0,0 V -30.61"
             style="fill:none;stroke:#000000;stroke-width:15;stroke-linecap:round;stroke-linejoin:round;stroke-miterlimit:10;stroke-dasharray:none;stroke-opacity:1"
             id="path2842" /></g><g
           id="g2844"
           transform="translate(63.9448,367.8955)"><path
             d="M 0,0 35.596,-148.787"
             style="fill:none;stroke:#000000;stroke-width:15;stroke-linecap:round;stroke-linejoin:round;stroke-miterlimit:10;stroke-dasharray:none;stroke-opacity:1"
             id="path2846" /></g><g
           id="g2848"
           transform="translate(124.3232,243.8867)"><path
             d="m 0,0 -53.729,213.19 c -2.392,5.288 -7.658,8.684 -13.461,8.684 h -34.857 c -8.161,0 -14.776,-6.615 -14.776,-14.775 0,-8.161 6.615,-14.776 14.776,-14.776 h 25.325 l 8.098,-33.846"
             style="fill:none;stroke:#000000;stroke-width:15;stroke-linecap:round;stroke-linejoin:round;stroke-miterlimit:10;stroke-dasharray:none;stroke-opacity:1"
             id="path2850" /></g></g></g></g></svg>
