<svg id="Stroke" height="512" viewBox="0 0 340 340" width="512" xmlns="http://www.w3.org/2000/svg"><path d="m330.292 272.174c-12.662.551-23 7.053-29.918 13.051 3.888-25.887-8.249-46.232-8.853-47.223a3.5 3.5 0 0 0 -6.48 1.579c-1.353 19.526-13.1 34.537-21.258 42.721a28.2 28.2 0 0 0 -2.74-12.079 3.5 3.5 0 0 0 -4.428-1.615 58.227 58.227 0 0 0 -12.536 7.145 39.1 39.1 0 0 0 -4.445-19.428 3.442 3.442 0 0 0 -3.113-1.789 3.5 3.5 0 0 0 -3.051 1.894c-.054.1-5.518 10.471-16.722 13.1a70.335 70.335 0 0 0 -14.284 4.911c4.007-13.287 2.1-27.537 1.993-28.33a3.5 3.5 0 0 0 -5.9-2.03 52.5 52.5 0 0 1 -11.5 8.246v-34.727h4.915c.05 0 .1-.013.146-.015s.095.015.145.015c9.812 0 15.012-4.534 17.647-8.337a12.015 12.015 0 0 1 9.786-5.323h13.4a15.718 15.718 0 0 0 13.544 7.777h28a15.739 15.739 0 0 0 15.722-15.717v-19a10.509 10.509 0 0 0 -10.5-10.5h-38.445a10.508 10.508 0 0 0 -10.5 10.44h-26.966a12 12 0 0 0 -11.981-11.908h-42.111a12 12 0 0 0 -11.982 11.908h-26.677a10.507 10.507 0 0 0 -10.5-10.44h-38.445a10.509 10.509 0 0 0 -10.5 10.5v19a15.74 15.74 0 0 0 15.722 15.722h28a15.715 15.715 0 0 0 13.543-7.777h13.4a12.013 12.013 0 0 1 9.786 5.323c2.634 3.8 7.834 8.337 17.647 8.337h3.975v36.656a3.5 3.5 0 1 0 7 0v-36.661h19.221v38.081q-3.335 1.407-7.03 2.651c-15.918 5.334-25.743 14.3-31.6 21.968a44.307 44.307 0 0 0 -2.262-12.1 3.5 3.5 0 0 0 -4.035-2.158 54.307 54.307 0 0 0 -19.282 8.358 72.687 72.687 0 0 0 -2.274-32.024 3.5 3.5 0 0 0 -2.929-2.393 3.443 3.443 0 0 0 -3.363 1.663c-.036.056-3.865 5.826-21.853 18.759-11.011 7.918-14.929 17.564-16.139 25.061-20.154-25.643-50.376-34.132-51.8-34.518a3.518 3.518 0 0 0 -4.049 1.738 3.463 3.463 0 0 0 .837 4.284c.049.044 4.928 4.574 7.616 18.72a59.725 59.725 0 0 0 6.319 17.73c-12.369-2.261-19.8 1.226-20.179 1.409a3.5 3.5 0 0 0 -.05 6.276c9.662 4.874 14.894 14.3 17.582 21.35a17.25 17.25 0 0 0 16.035 11.045 3.5 3.5 0 1 0 0-7 10.213 10.213 0 0 1 -9.49-6.542c-2.4-6.3-6.6-14.264-13.711-20.285a42.043 42.043 0 0 1 16.766 2.927c1.412.822 4.706 3.07 5.95 5.381a3.5 3.5 0 1 0 6.164-3.319c-2.17-4.03-6.773-7.031-8.4-8-1.367-1.556-7.626-9.255-10.1-22.277a64.775 64.775 0 0 0 -3.875-13.271c11.953 5.116 32.675 16.5 44.889 37.511a3.5 3.5 0 0 0 6.438-2.541c-.162-.718-3.756-17.738 13.289-29.994a169.135 169.135 0 0 0 18.919-15.313c1.44 7.6 2.682 21-2.675 33.341-.733.961-2.85 3.7-4.406 5.387a3.5 3.5 0 0 0 5.143 4.75c2.139-2.316 5-6.119 5.123-6.279.021-.028.033-.06.054-.089s.044-.05.064-.078c.068-.1 6.64-9.671 21.722-14.1a53.728 53.728 0 0 1 .12 21.09 3.5 3.5 0 0 0 6.79 1.655c.279-.9 7.145-22.183 34.888-31.48a82.6 82.6 0 0 0 22.712-11.274c.167 7.763-.7 20.605-7.245 28.811-1.3 1.438-12.549 14-16.659 24.4a3.5 3.5 0 1 0 6.511 2.572c3.795-9.607 15.307-22.246 15.423-22.372.013-.014.021-.031.033-.045s.024-.02.034-.032c.061-.068 6.239-6.931 22.282-10.695a32.932 32.932 0 0 0 17.4-11.032c1.566 5.216 2.649 13.207-1.975 20.055l-4.4 5.154a3.5 3.5 0 0 0 5.33 4.539l4.542-5.326-.007-.007c.024-.028.054-.049.077-.078a55.962 55.962 0 0 1 16.687-13.064 19.057 19.057 0 0 1 -1.055 13.665 35.511 35.511 0 0 1 -5.689 5.868 3.5 3.5 0 0 0 4.283 5.538 42.3 42.3 0 0 0 6.882-7.043c3.364-2.494 23.091-17.985 29.642-42.723 3.514 10.148 6.8 26.7.287 44.405a3.5 3.5 0 0 0 6.134 3.239c.128-.177 11.912-16.4 29.237-19.778-2.31 8.223-7.407 25.033-13.624 37.316a17.08 17.08 0 0 1 -15.3 9.433 3.5 3.5 0 0 0 0 7 24.048 24.048 0 0 0 21.545-13.271c8.849-17.481 15.233-42.641 15.5-43.7a3.5 3.5 0 0 0 -3.546-4.352zm-92.373-95.174a3.5 3.5 0 0 1 3.5-3.5h38.448a3.5 3.5 0 0 1 3.5 3.5v19a8.731 8.731 0 0 1 -8.721 8.722h-28a8.732 8.732 0 0 1 -8.727-8.722zm-133.719 19a8.731 8.731 0 0 1 -8.721 8.722h-28a8.732 8.732 0 0 1 -8.722-8.722v-19a3.5 3.5 0 0 1 3.5-3.5h38.443a3.5 3.5 0 0 1 3.5 3.5zm45.659 14.6c-5.445 0-9.446-1.791-11.892-5.323a19.014 19.014 0 0 0 -15.541-8.337h-11.274c.019-.314.048-.626.048-.945v-12.055h26.674v5.169a3.5 3.5 0 0 0 7 0v-12.092a4.991 4.991 0 0 1 4.985-4.985h42.111a4.991 4.991 0 0 1 4.985 4.985v12.964a3.5 3.5 0 0 0 7 0v-6.041h26.964v12.06c0 .319.03.631.048.945h-11.273a19.012 19.012 0 0 0 -15.54 8.337c-2.447 3.532-6.448 5.323-11.893 5.323-.05 0-.1.012-.145.014s-.1-.014-.146-.014z"/><path d="m229.489 138.346a3.5 3.5 0 0 0 -5.965 3.662 75.63 75.63 0 0 1 7.565 16.224 3.5 3.5 0 1 0 6.661-2.155 82.659 82.659 0 0 0 -8.261-17.731z"/><path d="m216.116 126.155c-3.183 2.4.115 5.628.115 5.628a3.99 3.99 0 0 0 4.925.5 3.409 3.409 0 0 0 .5-4.924s-2.656-3.383-5.54-1.204z"/><path d="m206.282 121.075a3.5 3.5 0 0 0 4.833-5.064 163.546 163.546 0 0 0 -20.334-16.363 184.43 184.43 0 0 0 -45.847-22.507 284.345 284.345 0 0 1 -36.219-14.987 3.5 3.5 0 0 0 -3.118 6.268 291.319 291.319 0 0 0 37.113 15.356 177.439 177.439 0 0 1 44.11 21.641 156.433 156.433 0 0 1 19.462 15.656z"/><path d="m93.5 58.044a3.5 3.5 0 0 0 -1.256-4.788q-.949-.555-1.883-1.111a3.5 3.5 0 0 0 -3.584 6.013 16.362 16.362 0 0 0 3.7 1.62 3.5 3.5 0 0 0 3.023-1.734z"/><path d="m70.8 47.906c.689.477 3.377 2.034 4.052 2.034a3.5 3.5 0 0 0 1.964-6.4q-1.032-.7-2.038-1.393a3.5 3.5 0 1 0 -3.978 5.759z"/><path d="m59.135 34.972a3.5 3.5 0 0 0 -.508-4.924q-.882-.717-1.731-1.421a3.5 3.5 0 0 0 -4.462 5.4c.581.48 3.207 2.242 3.983 2.242a3.5 3.5 0 0 0 2.718-1.297z"/><path d="m35.114 7.778a3.5 3.5 0 0 0 -5.408 4.444c.047.057 1.186 1.44 3.41 3.817a3.745 3.745 0 0 0 4.947.165 3.4 3.4 0 0 0 .165-4.946c-2.039-2.18-3.092-3.458-3.114-3.48z"/><path d="m247.5 140.056a3.5 3.5 0 0 0 -2.327 4.369 73.522 73.522 0 0 1 2.743 13.124 3.5 3.5 0 0 0 3.473 3.1 3.386 3.386 0 0 0 .4-.022 3.5 3.5 0 0 0 3.082-3.872 80.553 80.553 0 0 0 -3-14.378 3.5 3.5 0 0 0 -4.371-2.321z"/><path d="m240.92 129.293a3.5 3.5 0 0 0 3.05-5.213c-20.3-36.193-60.262-57.3-61.953-58.184-.038-.02-.076-.038-.114-.057a170.417 170.417 0 0 1 -19.191-10.616 3.5 3.5 0 0 0 -3.8 5.881 177.415 177.415 0 0 0 19.919 11.026c1.612.856 40.083 21.591 59.033 55.374a3.5 3.5 0 0 0 3.056 1.789z"/><path d="m149.854 53.815a3.441 3.441 0 0 0 2.742-1.323c1.963-2.552.181-4.415-1.453-5.634a3.552 3.552 0 0 0 -4.923.511 3.5 3.5 0 0 0 .512 4.924 9.5 9.5 0 0 0 3.122 1.522z"/><path d="m138.592 43.366a3.338 3.338 0 0 0 2.441-.992c2.652-2.786-.457-5.49-.457-5.49a3.5 3.5 0 1 0 -5.049 4.85s2.153 1.632 3.065 1.632z"/><path d="m129.138 31.619a3.5 3.5 0 0 0 2.932-5.406l-.381-.593a3.5 3.5 0 0 0 -5.909 3.752l.42.654a3.5 3.5 0 0 0 2.938 1.593z"/><path d="m122.06 14.066c3.456-.633 2.732-4.453 2.726-4.5a3.5 3.5 0 0 0 -6.949.849s.202 4.385 4.223 3.651z"/><path d="m265.686 160.639c.112.011.224.015.336.015a3.5 3.5 0 0 0 3.479-3.167 154.681 154.681 0 0 0 -5.324-57.854 118.056 118.056 0 0 0 -16.605-34.484 3.5 3.5 0 0 0 -5.752 3.99 111.108 111.108 0 0 1 15.633 32.437 147.764 147.764 0 0 1 5.08 55.246 3.5 3.5 0 0 0 3.153 3.817z"/><path d="m230.554 51.583a3.411 3.411 0 0 0 1.91-.569c3.1-2.079.721-5.3.721-5.3-1.055-1.619-3.387-2.3-4.842-1.024a3.792 3.792 0 0 0 -.723 5.31 3.5 3.5 0 0 0 2.934 1.583z"/><path d="m218.584 33.8c.595 1.272 3.045 2.577 4.654 1.688a3.59 3.59 0 0 0 1.687-4.653s-1.754-3.76-4.883-2.242c-3.742 1.814-1.458 5.207-1.458 5.207z"/><path d="m217.619 9.436a3.5 3.5 0 0 0 -6.91 1.124 75.413 75.413 0 0 0 2.864 10.718 3.5 3.5 0 0 0 6.639-2.216 70.473 70.473 0 0 1 -2.593-9.626z"/><path d="m280.062 160.578a3.5 3.5 0 0 0 4.151-2.7c8.343-39.3 10.06-76.02 5.1-109.149a3.5 3.5 0 1 0 -6.922 1.035c3.321 22.206 5.146 58.735-5.03 106.661a3.5 3.5 0 0 0 2.701 4.153z"/><path d="m279.582 34.756s.787 4.2 4.327 3.27c3.91-1.03 2.5-4.825 2.5-4.825a3.5 3.5 0 0 0 -6.825 1.555z"/><path d="m280.576 13.408a3.5 3.5 0 0 0 -6.547 2.479c.363.958.766 2.067 1.2 3.326a3.3 3.3 0 0 0 4.444 2.18 3.552 3.552 0 0 0 2.18-4.444c-.462-1.34-.891-2.52-1.277-3.541z"/><path d="m101.186 160.6a3.5 3.5 0 0 0 4.064-2.825c2.4-13.343 9.041-25.436 19.742-35.943a3.5 3.5 0 1 0 -4.905-4.994c-11.756 11.542-19.066 24.9-21.727 39.7a3.5 3.5 0 0 0 2.826 4.062z"/><path d="m132.288 106.7s-3.281 2.074-1.27 5.2c1.91 2.971 5.316.509 5.316.509a3.5 3.5 0 1 0 -4.046-5.711z"/><path d="m151.107 96.18s-.747.285-2.068.877a3.5 3.5 0 0 0 1.432 6.695 23.811 23.811 0 0 0 3.148-1.039 3.5 3.5 0 0 0 -2.512-6.533z"/><path d="m81.426 160.654h.054a3.5 3.5 0 0 0 3.5-3.446 76.227 76.227 0 0 1 7.149-31.042 3.5 3.5 0 0 0 -6.353-2.941 83.169 83.169 0 0 0 -7.8 33.876 3.5 3.5 0 0 0 3.45 3.553z"/><path d="m100.716 111.612c1.8-2.477 3.762-4.917 5.832-7.252a3.5 3.5 0 0 0 -5.237-4.645c-2.221 2.5-4.327 5.123-6.259 7.784a3.5 3.5 0 1 0 5.664 4.113z"/><path d="m121.733 90.6a3.5 3.5 0 0 0 -3.839-5.854s-4.43 2.227-2.284 5.571c1.89 2.95 6.095.299 6.123.283z"/><path d="m70.267 108.683a3.5 3.5 0 0 0 -4.267 2.517 123.678 123.678 0 0 0 -2.762 46.39 3.5 3.5 0 0 0 3.468 3.066 3.437 3.437 0 0 0 .439-.027 3.5 3.5 0 0 0 3.039-3.906 116.675 116.675 0 0 1 2.595-43.775 3.5 3.5 0 0 0 -2.512-4.265z"/><path d="m74.3 97.179a3.571 3.571 0 0 0 4.629-1.754q.264-.586.531-1.158a3.5 3.5 0 1 0 -6.344-2.959q-.287.612-.569 1.242a3.541 3.541 0 0 0 1.753 4.629z"/><path d="m91.718 69.413a3.506 3.506 0 0 0 -4.946.182s-.319.343-.887 1.018a3.446 3.446 0 0 0 .431 4.931 3.813 3.813 0 0 0 4.931-.431c.395-.47.629-.728.662-.763a3.5 3.5 0 0 0 -.191-4.937z"/><path d="m48.566 158.925a3.5 3.5 0 0 0 6.126-3.389 115.143 115.143 0 0 1 -12.844-37.353 3.5 3.5 0 0 0 -6.909 1.125 122.155 122.155 0 0 0 13.627 39.617z"/><path d="m36.828 106.843h.155a3.5 3.5 0 0 0 3.344-3.649l-.03-.746a3.5 3.5 0 1 0 -6.995.251l.032.8a3.5 3.5 0 0 0 3.494 3.344z"/><path d="m33.748 85.067-.087 1.051a3.5 3.5 0 0 0 3.213 3.766c.094.007.188.011.28.011a3.5 3.5 0 0 0 3.486-3.224l.083-1.007a3.5 3.5 0 1 0 -6.975-.6z"/><path d="m42.376 73.025a118.986 118.986 0 0 1 5.729-21.664 3.5 3.5 0 0 0 -6.485-2.635 123.394 123.394 0 0 0 -6.139 23.086 3.5 3.5 0 0 0 2.841 4.053 3.434 3.434 0 0 0 .611.054 3.5 3.5 0 0 0 3.443-2.894z"/></svg>