<svg id="Layer_1" enable-background="new 0 0 500 500" viewBox="0 0 500 500" xmlns="http://www.w3.org/2000/svg"><g fill="#141515"><path d="m92.782 320.834c-13.161 0-23.865 10.795-23.865 24.065 0 13.18 10.704 23.903 23.865 23.903 13.073 0 23.705-10.723 23.705-23.903.001-13.27-10.632-24.065-23.705-24.065zm0 39.892c-8.704 0-15.788-7.1-15.788-15.827 0-8.817 7.085-15.99 15.788-15.99 8.616 0 15.629 7.173 15.629 15.99 0 8.727-7.013 15.827-15.629 15.827z"/><path d="m475 339.732c0-3.437-1.51-6.512-3.95-8.539 1.14-3.017.958-6.501-.75-9.464l-5.107-8.88c-1.23-2.141-3.1-3.713-5.229-4.639 7.123-7.82 14.564-17.589 13.69-28.385.01-.116.067-.216.067-.336 0-1.136-.242-2.113-.435-2.887-1.041-4.331-2.231-11.662-3.608-20.155-1.299-8.011-2.625-15.872-4.035-23.398-.009-.162.048-.319.019-.48-2.215-12.093-4.677-22.571-7.31-31.148-.039-.126-.121-.226-.171-.346-5.271-17.325-12.005-29.183-21.661-30.565l-165.5-23.904c-.004 0-.008.001-.012.001l-15.684-2.265c-4.158-.588-10.126 2.806-16.162 7.666l-16.409-17.793 15.763-14.92c.033-.029.061-.06.094-.093 4.242-4.285 4.423-11.285.402-15.605-.215-.233-.474-.44-.755-.617-1.917-1.806-4.451-2.872-7.09-2.949-3.079-.083-5.822 1.066-7.801 3.063l-48.214 45.636c-2.187 1.964-3.459 4.677-3.587 7.639-.132 3.021.937 5.911 3.014 8.131 2.12 2.281 5.04 3.443 8.004 3.443 2.705 0 5.443-.97 7.641-2.939l15.694-14.854 16.864 18.134c-1.204 1.434-2.297 2.803-3.227 4.045-6.798 9.065-9.139 15.602-7.184 19.959l28.219 63.942h-97.951c-3.065-3.453-6.132-6.891-9.199-10.334h5.078c6.369 0 11.553-5.217 11.553-11.629 0-10.599-8.555-19.221-19.072-19.221h-49.229l-12.412-54.429c-2.737-11.048-13.375-19.702-24.228-19.702-3.327 0-6.258 1.342-8.247 3.779-2.054 2.516-2.82 5.966-2.082 9.561l19.172 83.566h-11.564c-10.787-.002-17.409 14.437-17.409 24.788 0 3.504.71 6.432 2.105 8.699 1.829 2.983 4.771 4.627 8.269 4.627h16.913v32.759c-1.708.956-3.217 2.326-4.259 4.148l-5.123 8.891c-1.697 2.964-1.878 6.442-.743 9.456-2.441 2.03-3.951 5.101-3.951 8.541v10.176c0 3.371 1.537 6.453 3.967 8.5-1.152 3.025-.976 6.523.733 9.503l5.112 8.875c1.702 2.972 4.561 4.892 7.669 5.44.539 3.135 2.413 5.974 5.305 7.663l8.798 5.173c2.887 1.679 6.313 1.909 9.311.845 2.016 2.509 5.101 4.066 8.561 4.066h10.233c3.339 0 6.391-1.562 8.44-4.074 2.953 1.097 6.346.873 9.272-.843l8.792-5.165c2.914-1.705 4.809-4.553 5.36-7.644 3.195-.532 6.06-2.477 7.613-5.454l5.124-8.894c1.669-2.912 1.878-6.366.804-9.377 2.496-2.027 4.044-5.134 4.044-8.615v-10.176c0-3.482-1.548-6.589-4.044-8.619.744-2.085.823-4.377.276-6.563h10.936c.278.398.656.918.892 1.261 3.834 5.548 5.349 6.181 11.844 6.181.32 0 .644 0 .986-.002l88.595-.012h.243c13.163-.001 24.69-3.616 34.028-9.043h78.934c-1.135 2.68-1.214 5.634-.227 8.255-2.44 2.03-3.95 5.101-3.95 8.541v10.176c0 3.371 1.537 6.453 3.967 8.5-1.151 3.025-.975 6.523.733 9.503l5.112 8.875c1.691 2.95 4.572 4.867 7.723 5.421.512 3.126 2.369 5.999 5.277 7.699l8.847 5.107c2.849 1.755 6.269 2.008 9.25.917 2.016 2.496 5.095 4.044 8.544 4.044h10.235c3.393 0 6.49-1.584 8.523-4.083 3.013 1.094 6.434.871 9.161-.818l9.062-5.231c2.799-1.73 4.611-4.57 5.135-7.633 3.157-.546 6.06-2.462 7.756-5.418l5.118-8.886c1.702-2.964 1.884-6.445.744-9.462 2.44-2.027 3.95-5.099 3.95-8.536v-10.171zm-18.304-110.474h-31.63c-6.346 0-12.654-5.489-13.75-11.902-.451-3.016.249-5.776 1.967-7.773 1.631-1.895 4.055-2.936 6.831-2.936h31.287c2.001 7.151 3.769 14.943 5.295 22.611zm-7.76-30.688h-28.823c-5.162 0-9.762 2.039-12.951 5.741-3.278 3.806-4.639 8.864-3.818 14.323 1.763 10.313 11.508 18.7 21.721 18.7h33.166c1.388 7.587 2.551 14.71 3.474 20.406.35 2.162.685 4.214 1.012 6.203.005.03.01.059.015.089.287 1.745.568 3.395.841 4.969.065.371.129.736.193 1.097.209 1.182.415 2.294.617 3.351.093.488.187.992.279 1.45.035.174.072.384.107.553h-87.676c-5.101 0-6.549-5.84-8.429-18.237-1.989-13.085-4.462-29.369-20.51-31.156-14.037-1.688-28.117-3.33-42.221-4.977-12.885-1.504-25.793-3.008-38.7-4.553-8.032-.953-12.208-12.605-15.894-22.882-1.206-3.374-2.352-6.561-3.602-9.321-2.551-5.693 15.964-22.405 23.965-29.456l163.665 23.635c5.294.757 9.794 8.913 13.569 20.065zm-264.181-39.504c-1.234 1.102-3.201 1.085-4.27-.072-.59-.628-.887-1.435-.854-2.273.033-.777.364-1.481.997-2.054l48.386-45.796c.649-.655 1.404-.769 1.845-.769.022 0 .05.003.071.003.75.022 1.438.347 1.939.914.165.185.347.356.551.504.705 1.168.512 2.89-.512 3.962l-18.315 17.336c-.101.078-.228.114-.322.202l-11.034 10.334c-.206.192-.314.438-.47.659zm43.421 3.159-16.392-17.627 5.102-4.829 16.171 17.532c-.7.664-1.386 1.404-2.082 2.101-.642.637-1.278 1.273-1.899 1.915-.297.312-.604.591-.9.908zm15.97 102.081 3.442 7.781.342.777h-90.489l-7.57-8.558zm-201.456-111.765c-.231-1.13-.072-2.105.446-2.741.551-.67 1.389-.81 1.994-.81 7.063 0 14.566 6.212 16.367 13.494l13.111 57.497c.419 1.838 2.055 3.14 3.939 3.14h52.451c6.065 0 10.996 5 10.996 11.145 0 1.958-1.559 3.553-3.477 3.553h-14.075-62.185zm96.582 197.366c0 1.503-1.03 2.743-2.457 2.947-1.581.228-2.881 1.371-3.311 2.914-.43 1.542.094 3.192 1.328 4.206.975.793 1.482 2.477.667 3.903l-5.201 9.029c-.629 1.204-2.077 1.716-3.388 1.195-1.515-.611-3.234-.253-4.385.907-1.141 1.159-1.477 2.892-.849 4.396.513 1.229-.082 2.773-1.355 3.52l-8.793 5.165c-1.245.721-2.715.449-3.608-.658-.986-1.226-2.595-1.785-4.127-1.389-1.531.383-2.694 1.619-2.985 3.17-.292 1.529-1.537 2.683-2.909 2.683h-10.234c-1.46 0-2.672-1.052-2.876-2.5-.226-1.592-1.377-2.901-2.925-3.328-.358-.099-.716-.146-1.075-.146-1.201 0-2.363.54-3.146 1.504-.876 1.09-2.534 1.374-3.768.667l-8.798-5.173c-1.41-.821-1.713-2.515-1.284-3.691.551-1.512.149-3.207-1.019-4.314-1.162-1.108-2.881-1.422-4.357-.785-1.174.504-2.661-.093-3.394-1.369l-5.112-8.875c-.743-1.297-.43-2.946.722-3.839 1.284-.991 1.851-2.656 1.438-4.223s-1.725-2.737-3.328-2.969c-1.427-.204-2.457-1.447-2.457-2.947v-10.176c0-1.504 1.03-2.746 2.457-2.95 1.603-.231 2.915-1.402 3.328-2.969.413-1.568-.154-3.232-1.438-4.223-1.151-.893-1.465-2.543-.727-3.831l5.123-8.892c.492-.86 1.343-1.38 2.207-1.486.024-.006.05.004.074-.002.331-.075.668-.029 1.013.108.03.011.065.005.095.019.399.169.823.103 1.243.139.351.03.695.177 1.039.116.471-.082.861-.392 1.277-.636.259-.151.567-.184.793-.394 0 0 .002-.006.004-.008l.001-.001c.122-.116.136-.292.242-.42.397-.483.771-.989.911-1.583.178-.751.142-1.553-.134-2.31-.43-1.176-.126-2.87 1.289-3.696l8.786-5.162c1.234-.728 2.903-.432 3.774.661 1.014 1.253 2.661 1.785 4.22 1.358 1.548-.427 2.699-1.735 2.925-3.327.204-1.449 1.416-2.501 2.876-2.501h10.236c1.372 0 2.617 1.154 2.909 2.683.292 1.551 1.454 2.788 2.985 3.171 1.531.386 3.14-.162 4.127-1.389.893-1.107 2.38-1.38 3.603-.661l8.803 5.17c1.268.744 1.863 2.289 1.35 3.518-.628 1.504-.292 3.237.849 4.397 1.151 1.154 2.87 1.52 4.385.906.328-.129.664-.193.993-.198.988-.009 1.939.536 2.496 1.572l5.093 8.842c.821 1.435.314 3.118-.661 3.911-1.234 1.014-1.758 2.664-1.328 4.206s1.73 2.686 3.311 2.914c1.427.204 2.457 1.446 2.457 2.95zm.259-33.434-2.071-3.484c-1.608-3.069-4.49-5.049-7.69-5.591-.557-3.094-2.447-5.944-5.361-7.649l-8.803-5.17c-2.926-1.716-6.319-1.939-9.266-.84-2.049-2.512-5.101-4.074-8.44-4.074h-10.235c-3.46 0-6.545 1.557-8.561 4.066-2.986-1.057-6.418-.84-9.316.851l-8.786 5.162c-.221.129-.43.264-.639.405v-24.212h58.373c5.509 7.451 11.017 14.934 16.527 22.421 4.468 6.065 8.936 12.134 13.353 18.116h-9.085zm117.534 7.429c-.072 0-.149 0-.22 0h-86.187l-2.479.012c-1.857.019-3.79.032-4.182-.113-.32-.231-1.146-1.424-1.944-2.578-.672-.975-1.487-2.154-2.545-3.597-5.911-7.994-11.828-16.025-17.739-24.058-5.917-8.038-11.833-16.076-17.756-24.072-.76-1.03-1.967-1.636-3.245-1.636h-64.443-20.951c-.689 0-1.03-.19-1.389-.776-.578-.939-.909-2.57-.909-4.474 0-7.299 4.528-16.714 9.332-16.714h16.632 63.596c4.892 5.479 9.784 10.99 14.676 16.502 5.101 5.746 10.203 11.489 15.298 17.197.282.313.644.519.999.728.129.076.225.203.361.264.514.231 1.076.355 1.653.355h98.506 46.182c.075.001.127.014.201.015.789.012 1.505.065 2.149.159.392.059.71.152 1.049.236.274.067.567.122.812.204.294.098.536.218.786.333.236.11.478.218.682.345.176.107.331.219.482.333.249.191.482.389.677.603.062.066.132.131.186.198.522.637.845 1.348 1.034 2.078.203.744.248 1.59.251 2.46-.008.613-.086 1.263-.182 1.921-.041.286-.084.572-.143.866-.136.687-.307 1.389-.534 2.111-.137.43-.317.873-.486 1.314-.28.74-.581 1.484-.948 2.247-.506 1.03-1.064 2.072-1.728 3.131-.134.218-.287.436-.428.654-3.503 5.339-8.945 10.848-16.064 15.232-8.24 5.014-18.708 8.52-31.042 8.52zm45.417-9.435c1.136-1.064 2.205-2.148 3.214-3.255.096-.106.195-.209.289-.315 1.113-1.24 2.145-2.495 3.094-3.768.039-.052.081-.105.121-.157.936-1.266 1.79-2.538 2.557-3.818.065-.108.139-.215.203-.323.69-1.174 1.298-2.343 1.841-3.511.104-.22.231-.439.329-.659.463-1.048.838-2.085 1.177-3.115.355-1.058.613-2.097.833-3.133.088-.424.218-.857.283-1.274.122-.766.15-1.503.192-2.248.019-.348.088-.713.09-1.054 0-.105-.024-.195-.025-.3-.009-.677-.085-1.326-.166-1.978-.065-.536-.136-1.067-.248-1.574-.055-.243-.052-.508-.118-.746-.052-.189-.182-.321-.241-.506-.434-1.379-1.004-2.665-1.799-3.781-.067-.094-.156-.166-.225-.258-.806-1.07-1.797-1.982-2.919-2.773-.185-.13-.35-.275-.544-.397-1.202-.762-2.568-1.355-4.072-1.792-.274-.08-.561-.139-.845-.207-1.595-.385-3.287-.652-5.162-.662h-43.582l-36.973-83.763c-.209-1.008 1.141-6.187 9.817-16.414.521-.614 1.045-1.164 1.568-1.756.031-.034.077-.047.107-.081 1.378-1.592 2.82-3.119 4.267-4.611.475-.481.953-.985 1.422-1.444.784-.777 1.564-1.483 2.348-2.212 6.937-6.401 12.896-10.239 14.873-10.242l7.088 1.023c-14.202 12.912-25.047 25.02-20.898 34.281 1.124 2.476 2.21 5.512 3.361 8.726 4.253 11.866 9.547 26.633 22.543 28.178 12.913 1.542 25.826 3.049 38.723 4.553 14.092 1.645 28.162 3.286 42.226 4.978 9.232 1.03 11.32 10.307 13.447 24.347 1.79 11.764 3.812 25.101 16.416 25.101h88.5c-.85 5.968-5.272 12.108-10.834 18.37-.072-.081-.177-.134-.252-.213-.681-.729-1.429-1.406-2.315-1.952l-8.852-5.104c-2.798-1.73-6.264-1.958-9.26-.878-2.034-2.501-5.135-4.085-8.528-4.085h-10.235c-3.449 0-6.523 1.545-8.539 4.038-2.98-1.083-6.363-.851-9.151.862l-8.974 5.178c-.723.423-1.381.919-1.97 1.475-1.766 1.666-2.906 3.867-3.291 6.213-3.149.555-6.028 2.469-7.713 5.412l-.027.047-.006.007-.027.051-1.102 1.911h-72.42c.134-.126.249-.264.384-.392zm164.441 35.44c0 1.503-1.03 2.743-2.457 2.947-1.603.231-2.915 1.401-3.328 2.972-.413 1.567.154 3.231 1.438 4.223 1.157.89 1.465 2.54.727 3.831l-5.117 8.886c-.761 1.314-2.281 1.865-3.625 1.335-1.515-.611-3.24-.253-4.379.904-1.146 1.157-1.482 2.89-.859 4.393.512 1.223-.061 2.827-1.163 3.51l-9.062 5.231c-1.069.655-2.683.335-3.525-.708-1.008-1.256-2.672-1.791-4.214-1.364-1.554.427-2.705 1.733-2.931 3.328-.203 1.448-1.416 2.5-2.875 2.5h-10.235c-1.46 0-2.672-1.052-2.876-2.5-.226-1.592-1.377-2.901-2.925-3.328-.358-.099-.716-.146-1.075-.146-1.201 0-2.363.54-3.145 1.504-.854 1.06-2.435 1.383-3.636.65l-8.93-5.157c-1.217-.71-1.73-2.225-1.19-3.52.623-1.503.287-3.236-.859-4.393-1.146-1.159-2.892-1.515-4.385-.904-1.355.546-2.87-.024-3.62-1.341l-5.112-8.875c-.743-1.297-.43-2.946.722-3.839 1.284-.991 1.851-2.656 1.438-4.223-.414-1.567-1.725-2.737-3.328-2.969-1.427-.204-2.457-1.447-2.457-2.947v-10.176c0-1.504 1.03-2.746 2.457-2.95 1.603-.231 2.914-1.402 3.328-2.969.413-1.568-.155-3.232-1.438-4.223-1.151-.893-1.465-2.543-.727-3.831l2.701-4.687c.056-.085.158-.124.208-.213l2.215-3.992c.755-1.314 2.281-1.884 3.614-1.333 1.493.606 3.24.256 4.385-.903 1.146-1.157 1.482-2.89.859-4.394-.539-1.294-.027-2.809 1.168-3.509l9.057-5.228c1.096-.683 2.683-.353 3.531.71 1.013 1.253 2.661 1.785 4.22 1.358 1.548-.427 2.699-1.735 2.925-3.327.204-1.449 1.416-2.501 2.876-2.501h10.235c1.46 0 2.672 1.052 2.875 2.501.226 1.595 1.378 2.903 2.931 3.327 1.542.441 3.206-.104 4.214-1.363.843-1.047 2.457-1.363 3.63-.644l8.842 5.099c.396.246.695.598.939.977.063.099.118.202.169.307.194.396.341.819.341 1.263 0 .017.014.029.014.046.002.339-.055.674-.185.984-.623 1.504-.287 3.237.859 4.394 1.14 1.159 2.865 1.517 4.379.903 1.344-.542 2.865.019 3.63 1.339l5.107 8.88c.743 1.294.435 2.944-.722 3.834-1.284.991-1.851 2.655-1.438 4.223.413 1.57 1.725 2.74 3.328 2.972 1.426.204 2.457 1.446 2.457 2.95v10.176z"/><path d="m420.433 320.834c-13.073 0-23.711 10.795-23.711 24.065 0 13.18 10.638 23.903 23.711 23.903s23.706-10.723 23.706-23.903c0-13.27-10.633-24.065-23.706-24.065zm0 39.892c-8.621 0-15.634-7.1-15.634-15.827 0-8.817 7.013-15.99 15.634-15.99 8.617 0 15.629 7.173 15.629 15.99 0 8.727-7.012 15.827-15.629 15.827z"/></g></svg>