<svg id="Tree_L" height="512" viewBox="0 0 100 100" width="512" xmlns="http://www.w3.org/2000/svg" data-name="Tree L"><path d="m91.87 75.77c2.9-.7 3.98-4.76 2.09-6.99 0 0-4.92-6.24-4.92-6.24 1.72-1.5 1.97-4.36.54-6.12 0 0-9.66-12.44-9.66-12.44-1.51-2.04-4.64-2.04-6.15 0 0 0-3.53 4.54-3.53 4.54.04-1.05-9.78-12.77-10.5-13.88 3.32-1.9 4.12-6.99 1.69-9.92 0 0-17.14-22.06-17.14-22.06-2.24-3.03-6.83-3.03-9.07 0 0 0-17.14 22.06-17.14 22.06-2.42 2.93-1.63 8.02 1.69 9.92l-9.48 12.02c-3.37 4.13-.5 11.24 5.11 10.75l-13.97 16.49c-3.42 3.74-.96 11.02 4.37 10.92h31.95v13.84c.03 1.97 2.97 1.97 3 0v-13.84h13.51c-1.6 2.57.28 6.63 3.43 6.54h17.36v7.15c.03 1.97 2.97 1.97 3 0v-7.15h17.94c3.55.06 5.25-4.71 2.96-7.23 0 0-7.08-8.35-7.08-8.35zm-51.13 6.04v-27.08l11.85-13.04c.56-.61.51-1.56-.1-2.12s-1.56-.51-2.12.1l-9.63 10.6v-14.05c-.03-1.97-2.97-1.97-3 0v23.35l-12.08-11.07c-1.48-1.31-3.46.86-2.03 2.21l14.1 12.93v18.18h-31.94c-2.94-.14-3.79-3.98-2.08-5.98 0 0 16.08-18.97 16.08-18.97.83-.92.1-2.51-1.14-2.47h-3.84c-3.1-.22-3.65-4.07-2.15-5.89 0 0 10.79-13.69 10.79-13.69.75-.89.1-2.36-1.05-2.42-2.49-.31-3.63-3.63-1.94-5.84 0 0 17.14-22.06 17.14-22.06 1.11-1.5 3.22-1.5 4.33 0 0 0 17.14 22.06 17.14 22.06 1.69 2.21.54 5.53-1.94 5.84-1.16.06-1.8 1.54-1.05 2.42 0 0 10.79 13.69 10.79 13.69.78.98 1 2.32.63 3.54l-1.6 2.06c-.68.51-3.92.22-5.03.29-1.24-.04-1.98 1.55-1.14 2.47 0 0 4.86 5.74 4.86 5.74l-4.87 6.17c-1.89 2.23-.81 6.29 2.09 6.99l-5.12 6.04h-15.94zm56.1 5.89c-.11.24-.37.64-.86.64h-17.94v-14.36l6.51-7.17c1.3-1.48-.87-3.46-2.22-2.02 0 0-4.29 4.72-4.29 4.72v-6.23c-.03-1.97-2.97-1.97-3 0v11.67l-5.71-5.24c-1.47-1.31-3.46.85-2.03 2.21 0 0 7.74 7.1 7.74 7.1v9.31s-17.36 0-17.36 0c-1.04-.08-1.31-1.55-.67-2.29 0 0 9.06-10.69 9.06-10.69.83-.92.09-2.51-1.14-2.47h-2.17c-1.03-.09-1.3-1.49-.7-2.26 0 0 6.09-7.71 6.09-7.71.75-.89.1-2.37-1.05-2.42-.99-.19-1.2-1.49-.63-2.24 0 0 9.66-12.44 9.66-12.44.38-.51 1.03-.51 1.41 0 0 0 9.66 12.44 9.66 12.44.57.74.35 2.06-.63 2.24-1.16.06-1.8 1.54-1.05 2.42 0 0 6.09 7.71 6.09 7.71.61.78.31 2.17-.7 2.26h-2.17c-1.24-.04-1.97 1.55-1.14 2.47 0 0 9.06 10.69 9.06 10.69.46.54.39 1.23.19 1.65z"/></svg>